# xmcd
#
# Track frame offsets:
#	150
#	20148
#	36508
#	50677
#	68638
#	83606
#	102174
#	114823
#	125836
#	146239
#	161010
#	172710
#	190050
#	207925
#	222896
#	247912
#
# Disc length: 4440 seconds
#
# Revision: 0
# Processed by: cddbd v1.5.2PL0 Copyright (c) Steve Scherf et al.
# Submitted via: EasyCDDAExtractor 2010.4.0.0
#
DISCID=df115610
DTITLE=Various Artist - Let it roll
DYEAR=2004
DGENRE=
TTITLE0=Albert Järvinen and Albert King - Let it roll
TTITLE1=Albert Järvinen and Albert King - Duke brothers live at Taxman´s paradis
TTITLE1=e
TTITLE2=Albert Järvinen and Albert King - It´s only love
TTITLE3=Albert Järvinen and Albert King - Don´t lie to me
TTITLE4=Albert Järvinen and Albert King - Milkshake
TTITLE5=Albert Järvinen and Albert King - Song for the sons
TTITLE6=Albert Järvinen and Albert King - L.A. Shuffle
TTITLE7=Albert Järvinen and Albert King - Tribute to pidgeon
TTITLE8=Albert Järvinen - The tribe
TTITLE9=Albert Järvinen - Mirror tower
TTITLE10=Albert Järvinen - I´d rather co blind
TTITLE11=Albert Järvinen - Wrapping paper
TTITLE12=Albert Järvinen - Like a star (Shining down on me)
TTITLE13=Albert Järvinen - Peace and harmony
TTITLE14=Albert Järvinen - I love you anyway
TTITLE15=Albert Järvinen - Data
EXTD=
EXTT0=
EXTT1=
EXTT2=
EXTT3=
EXTT4=
EXTT5=
EXTT6=
EXTT7=
EXTT8=
EXTT9=
EXTT10=
EXTT11=
EXTT12=
EXTT13=
EXTT14=
EXTT15=
PLAYORDER=
